<svg id="Capa_1" data-name="Capa 1" xmlns="http://www.w3.org/2000/svg" xmlns:xlink="http://www.w3.org/1999/xlink" viewBox="0 0 582.65 582.65">
  <defs>
    <style>
      .cls-1 {
        fill: none;
      }

      .cls-2 {
        fill: #feedf7;
      }

      .cls-3 {
        clip-path: url(#clip-path);
      }

      .cls-4 {
        clip-path: url(#clip-path-2);
      }

      .cls-5 {
        fill: #4a2456;
      }

      .cls-6 {
        clip-path: url(#clip-path-3);
      }

      .cls-7 {
        fill: #2b2956;
      }

      .cls-8 {
        clip-path: url(#clip-path-5);
      }

      .cls-9 {
        fill: #f89da3;
      }

      .cls-10 {
        clip-path: url(#clip-path-7);
      }

      .cls-11 {
        fill: #e4448f;
      }

      .cls-12 {
        clip-path: url(#clip-path-9);
      }

      .cls-13 {
        clip-path: url(#clip-path-11);
      }

      .cls-14 {
        clip-path: url(#clip-path-13);
      }

      .cls-15 {
        clip-path: url(#clip-path-15);
      }

      .cls-16 {
        fill: #e5adcf;
      }

      .cls-17 {
        clip-path: url(#clip-path-17);
      }

      .cls-18 {
        fill: #cda2cb;
      }

      .cls-19 {
        clip-path: url(#clip-path-19);
      }

      .cls-20 {
        clip-path: url(#clip-path-21);
      }

      .cls-21 {
        clip-path: url(#clip-path-23);
      }

      .cls-22 {
        clip-path: url(#clip-path-25);
      }

      .cls-23 {
        clip-path: url(#clip-path-27);
      }
    </style>
    <clipPath id="clip-path" transform="translate(-9.76 -10.03)">
      <rect class="cls-1" x="81.19" y="43.65" width="342" height="534"/>
    </clipPath>
    <clipPath id="clip-path-2" transform="translate(-9.76 -10.03)">
      <path class="cls-1" d="M8.81,301.35c0,160.89,130.44,291.32,291.33,291.32S591.46,462.24,591.46,301.35,461,10,300.14,10,8.81,140.46,8.81,301.35Z"/>
    </clipPath>
    <clipPath id="clip-path-3" transform="translate(-9.76 -10.03)">
      <rect class="cls-1" x="135.19" y="77.65" width="274" height="500"/>
    </clipPath>
    <clipPath id="clip-path-5" transform="translate(-9.76 -10.03)">
      <rect class="cls-1" x="177.19" y="265.65" width="296" height="255"/>
    </clipPath>
    <clipPath id="clip-path-7" transform="translate(-9.76 -10.03)">
      <rect class="cls-1" x="197.19" y="287.65" width="160" height="206"/>
    </clipPath>
    <clipPath id="clip-path-9" transform="translate(-9.76 -10.03)">
      <rect class="cls-1" x="324.19" y="306.65" width="55" height="54"/>
    </clipPath>
    <clipPath id="clip-path-11" transform="translate(-9.76 -10.03)">
      <rect class="cls-1" x="362.19" y="359.65" width="111" height="234"/>
    </clipPath>
    <clipPath id="clip-path-13" transform="translate(-9.76 -10.03)">
      <rect class="cls-1" x="256.19" y="265.65" width="88" height="71"/>
    </clipPath>
    <clipPath id="clip-path-15" transform="translate(-9.76 -10.03)">
      <rect class="cls-1" x="104.19" y="350.65" width="393" height="243"/>
    </clipPath>
    <clipPath id="clip-path-17" transform="translate(-9.76 -10.03)">
      <rect class="cls-1" x="105.19" y="353.65" width="392" height="240"/>
    </clipPath>
    <clipPath id="clip-path-19" transform="translate(-9.76 -10.03)">
      <rect class="cls-1" x="195.19" y="207.65" width="89" height="314"/>
    </clipPath>
    <clipPath id="clip-path-21" transform="translate(-9.76 -10.03)">
      <rect class="cls-1" x="219.19" y="223.65" width="65" height="298"/>
    </clipPath>
    <clipPath id="clip-path-23" transform="translate(-9.76 -10.03)">
      <rect class="cls-1" x="213.19" y="101.65" width="180" height="213"/>
    </clipPath>
    <clipPath id="clip-path-25" transform="translate(-9.76 -10.03)">
      <rect class="cls-1" x="392.19" y="381.65" width="116" height="212"/>
    </clipPath>
    <clipPath id="clip-path-27" transform="translate(-9.76 -10.03)">
      <rect class="cls-1" x="392.19" y="409.65" width="81" height="184"/>
    </clipPath>
  </defs>
  <path class="cls-2" d="M9.76,301.35c0,160.89,130.43,291.32,291.32,291.32S592.41,462.24,592.41,301.35,462,10,301.08,10,9.76,140.46,9.76,301.35" transform="translate(-9.76 -10.03)"/>
  <g class="cls-3">
    <g class="cls-4">
      <path class="cls-5" d="M422.47,382.12c-3,59.18.91,148.75-66.05,173.66l-2.76,1C286.9,580.58,195.29,576,195.29,576s-25.87,4.36-53.3-4.82c-17.48-5.87-35.59-17.25-48-38.77-31.93-55.3,7-113.69,11.69-130.84s-9.35-42.82-5.45-67,37.19-42,38.19-64.89-1.6-61.27,14.51-76.84,32.69-21.81,38.93-46.72,24.92-87.73,81.5-98.12,87.73,3.1,103.84,7.78,50.36,19.72,44.64,76.32a195.77,195.77,0,0,1-17.92,64.67c-9.55,19.94-20.31,33.07-26.2,38.12-3.17,2.71-5,8.57-5.68,15.84-1.72,17.7,3.13,43.93,10.86,54.25,10.91,14.54,42.54,17.89,39.58,77.09" transform="translate(-9.76 -10.03)"/>
    </g>
  </g>
  <g class="cls-6">
    <g class="cls-4">
      <path class="cls-7" d="M396.16,338.87c18,19.7,6.07,71.73,6.07,71.73L353.66,556.78C286.9,580.58,195.29,576,195.29,576s-25.87,4.36-53.3-4.82c-15.38-33,1.76-90.75,13-120.73,14.51-38.7-2.78-64.27,0-99.48s26.95-47,43.79-66.43,57.55-89.07,57.55-89.07,25.12-18.66,43.8-44.31S316.7,79,316.7,79s13.12-5.86,64.95,23.47c33.77,19.12,29.39,64.8,22.26,94.34-9.55,19.94-20.31,33.07-26.2,38.12-3.17,2.71-5,8.57-5.68,15.84C363,263.12,355,277.33,356.46,288c3.13,23.37,21.73,31.19,39.7,50.91" transform="translate(-9.76 -10.03)"/>
    </g>
  </g>
  <g class="cls-8">
    <g class="cls-4">
      <path class="cls-9" d="M468.55,477.12c-3.91,17.25-16.31,28.77-35.88,35.57a111.83,111.83,0,0,1-13.15,3.63,165.32,165.32,0,0,1-17.72,2.76c-13.83,1.49-29.54,1.7-46.94.88-64.64-3.11-177.56-4.68-177.56-4.68l28-122.25s3.38-7.86,8.83-19.66c9.91-21.57,26.68-56.29,42.15-80.29,1.14-1.76,2.28-3.48,3.4-5.12,9.91-14.54,19-23.77,25-21.09,21,9.34,59.19,14.8,59.19,14.8s-.83,11.86-.85,25.15c0,1,0,2.05,0,3.08.1,13.77,1.18,28.18,5,32,5.6,5.59,19.76,10.64,31,13.82,4.39,1.23,8.33,2.21,11.11,2.8,1.68.34,4.37.84,7.77,1.5a230.3,230.3,0,0,1,27,6.81c13.69,4.48,27.56,11.05,34.27,20.75a62.86,62.86,0,0,1,7,13.6c.25.61.44,1.09.56,1.45.06.21.15.41.21.64,0,0,0,.07,0,.11a101,101,0,0,1,5,23.68v0a157.72,157.72,0,0,1-3.49,50" transform="translate(-9.76 -10.03)"/>
    </g>
  </g>
  <g class="cls-10">
    <g class="cls-4">
      <path class="cls-11" d="M311.68,486.39c-43,19.19-88.3-8.2-88.94-10.59s-24.65-33.45-25.37-35.54c-.65-1.75,12.81-51.32,16.81-66.89,9.91-21.57,26.68-56.29,42.15-80.29,1.14-1.76,2.28-3.48,3.4-5.12L277,314.48s-6.73,40.78-3.62,56.34,16.06,28,6.21,45.6-26.24,30.06-23.21,35.77,65,10.48,88.66.57,9.71,14.45-33.31,33.63" transform="translate(-9.76 -10.03)"/>
    </g>
  </g>
  <g class="cls-12">
    <g class="cls-4">
      <path class="cls-11" d="M379.06,355.71V360s-33.17-11-37.32-13S325,318,325,318l18.1-11.14c0,1,0,2.05,0,3.08.1,13.77,1.18,28.18,5,32,5.6,5.59,19.76,10.64,31,13.82" transform="translate(-9.76 -10.03)"/>
    </g>
  </g>
  <g class="cls-13">
    <g class="cls-4">
      <path class="cls-11" d="M432.67,512.69c-1.79-4.18-3.38-7.82-4.71-10.75-9.41-20.62-23.3-66.52-25.73-91.34-.2-2-.33-3.87-.37-5.57-.41-18,16.11-32.8,23.07-38.21a230.3,230.3,0,0,0-27-6.81,4.35,4.35,0,0,1-1.78,2c-2,.81-14.87,11.18-25.36,19.79-1.22,9.46-4.54,18.07-7.77,27.07-.12.32-.24.62-.38.93,9.51,26.5,28.31,78.89,39.15,109.28a165.32,165.32,0,0,0,17.72-2.76c8.25,20,16.07,38.82,19.45,46.48,7.36,16.73,14.43,36.91,33.85,38.28-8.14-10.12-28.34-60.73-40.15-88.39" transform="translate(-9.76 -10.03)"/>
    </g>
  </g>
  <g class="cls-14">
    <g class="cls-4">
      <path class="cls-11" d="M343.13,309.9C328.3,323,311.86,335,308.4,336.17c-6.23,2.07-45.17-23.87-48.81-30.1-1.14-1.93-2.26-7-3.27-13,11.21-17.41,21.74-29.21,28.45-26.21,21,9.34,59.19,14.8,59.19,14.8s-.95,13.77-.83,28.23" transform="translate(-9.76 -10.03)"/>
    </g>
  </g>
  <g class="cls-15">
    <g class="cls-4">
      <path class="cls-16" d="M484.1,1049.83c-17.29,18.93-83.13,79-233,52.68-117.75-20.68-140.91-48-145.43-62.36a25.13,25.13,0,0,1-1.07-8.44c0-7.39,32.91-162.16,58.44-226.36,4.95-12.45,9-24.18,12.27-35.23,13.64-45.93,13.93-80,10-103.88-3.17-19-17-49-27.2-75.94-5.68-15-10.24-29.07-11.21-39.84-2.74-30.18,40.61-147.63,40.61-147.63l29.62,1.09,1.66,55.45s51,6,81.77,6,42.79-8.22,44.44-12.63,15.64-54.87,20.57-73.39S376.28,351,376.28,351l15.3,3.53,16.79,3.86s-25,67.52-20.32,95.5,24.45,52.68,55.71,45.27.83,45.28-8.23,62.55-27.16,81.5-29.63,106.18,4.83,73.27,16.61,97.57,46,97.54,61.59,159.29,17.29,106.17,0,125.1" transform="translate(-9.76 -10.03)"/>
    </g>
  </g>
  <g class="cls-17">
    <g class="cls-4">
      <path class="cls-18" d="M484.1,1049.83c-10.55,11.57-39.24,38.5-94.14,51.68-29.38,7.07-66.28,10.2-111.93,4.93-8.64-1-17.6-2.29-26.89-3.93-117.75-20.68-140.91-48-145.43-62.36,74.78,40.29,249.75,16.92,247.29-44.62-2.76-68.21,5.84-194-10.08-230s-66-53.16-90.82-48.84c-20.3,3.5-59.94,41.3-76.75,53.43,13.64-45.93,13.93-80,10-103.88-3.17-19-17-49-27.2-75.94,17.77,6.07,42.44,12.84,59.77,10.87,30.06-3.41,125.42-17.34,122.11-25.55s32.34-86.11,30.27-108.93c-1.83-20.14,16.93-95,21.33-112.18l16.79,3.86s-25,67.52-20.32,95.5,24.45,52.68,55.71,45.27.83,45.28-8.23,62.55-27.16,81.5-29.63,106.18,4.83,73.27,16.61,97.57,46,97.54,61.59,159.29,17.29,106.17,0,125.1" transform="translate(-9.76 -10.03)"/>
    </g>
  </g>
  <g class="cls-19">
    <g class="cls-4">
      <path class="cls-5" d="M262.19,318.26c-3.89,29.59-3.11,50.63,0,59.95s10.51,20.27,8.17,33.52-21.41,30-25.31,35.42-5.83,12.45-5.06,24.13.79,23.36-2,31.16-8.56,16.54-13.62,18a5.34,5.34,0,0,1-5.14-.89c-2.14-1.79-3-5.7-1.08-11.66,3.11-9.75,9-22.59,2.72-37.77s-16.36-19.47-17.13-28.82,2.72-33.47-3.9-35.43-10.9-167,22.58-197.39l35,16.14,25.76,11.87-5.45,21s-11.67,31.16-15.57,60.75" transform="translate(-9.76 -10.03)"/>
    </g>
  </g>
  <g class="cls-20">
    <g class="cls-4">
      <path class="cls-7" d="M262.19,318.26c-3.89,29.59-3.11,50.63,0,59.95s10.51,20.27,8.17,33.52-21.41,30-25.31,35.42-5.83,12.45-5.06,24.13.79,23.36-2,31.16-8.56,16.54-13.62,18a5.34,5.34,0,0,1-5.14-.89c11.13-10.82,12.31-52.93,9.64-63.57-2.76-11,14.51-29.7,19.36-49.75s-8.29-58.74-11.75-91.75,11.75-90.7,11.75-90.7l9.17.84,25.76,11.87-5.45,21s-11.67,31.16-15.57,60.75" transform="translate(-9.76 -10.03)"/>
    </g>
  </g>
  <g class="cls-21">
    <g class="cls-4">
      <path class="cls-9" d="M389.79,205.1v0c-3.27,23.59-8.74,46.51-11.56,54.73-5,14.52-50.24,49.89-58.92,54.16-.31.14-.58.27-.79.34-6.24,2.07-45.17-23.89-48.8-30.11s-7.28-44.66-7.28-44.66S236,235.46,223,227.67c-8.4-5-12-18.12-7.71-30A31.12,31.12,0,0,1,229.75,181c21.27-12,37.38,18.68,37.38,18.68s27-11.95,44.11-35.82,26-61.27,26-61.27c17.66-1.56,46.73,22.84,53.49,50.35,3,12.49,1.84,32.58-.9,52.2" transform="translate(-9.76 -10.03)"/>
    </g>
  </g>
  <g class="cls-22">
    <g class="cls-4">
      <path class="cls-9" d="M483.36,600.17a36.16,36.16,0,0,1-10.54.91c-19.42-1.37-26.49-21.55-33.85-38.28-3.38-7.66-11.2-26.48-19.45-46.48C406.86,485.55,393.19,452,393.19,452c-2.73-13.55,1.37-28.66,9-41.41,8.11-13.5,20.22-24.3,32.45-27.7,19.8-5.51,29,12.22,31.53,18.27.25.61.44,1.09.56,1.45s.19.52.19.52a.68.68,0,0,0,0,.12s0,.07,0,.11c.31,1.52,2.16,10.7,5,23.68v0c5.86,26.38,16,68.38,26.1,93.65,15.59,38.91,12.85,73.19-14.78,79.44" transform="translate(-9.76 -10.03)"/>
    </g>
  </g>
  <g class="cls-23">
    <g class="cls-4">
      <path class="cls-11" d="M472.82,601.08c-19.42-1.37-26.49-21.55-33.85-38.28-3.38-7.66-11.2-26.48-19.45-46.48C406.86,485.55,393.19,452,393.19,452c-2.73-13.55,1.37-28.66,9-41.41,2.43,24.82,16.32,70.72,25.73,91.34,1.33,2.93,2.92,6.57,4.71,10.75,11.81,27.66,32,78.27,40.15,88.39" transform="translate(-9.76 -10.03)"/>
    </g>
  </g>
  <g class="cls-21">
    <g class="cls-4">
      <path class="cls-11" d="M389.79,205.1c.36-15-1-31.43-6.07-45.23-13.47-36.27-36.28-42.5-36.28-42.5s-30.58,76.71-52.35,87.07-21.56,43-22.7,52.88,3.44,25.48,16,37.66c10.69,10.39,26.55,17.25,30.95,19-.31.14-.58.27-.79.34-6.24,2.07-45.17-23.89-48.8-30.11s-7.28-44.66-7.28-44.66S236,235.46,223,227.67c-8.4-5-12-18.12-7.71-30,1.49,9,5.45,17.84,14.34,23,22.81,13.14,32.82,10,32.82,10l4.69-31.07s27-11.95,44.11-35.82,26-61.27,26-61.27c17.66-1.56,46.73,22.84,53.49,50.35,3,12.49,1.84,32.58-.9,52.2" transform="translate(-9.76 -10.03)"/>
    </g>
  </g>
</svg>
