<svg width="2642" height="746" viewBox="0 0 2642 746" fill="none" xmlns="http://www.w3.org/2000/svg">
<path d="M350 0C469.646 0 575.27 60.036 638.392 151.626L534.728 404.409H527.909L380.182 44.1816H206.034V626H342.966V266.625H347.796L487.568 622.307H569.9C509.805 670.897 433.301 700 350 700C156.7 700 0 543.3 0 350C0 156.7 156.7 0 350 0ZM697.902 311.475C699.288 324.126 700 336.98 700 350C700 456.398 652.524 551.706 577.601 615.898L697.902 311.475Z" fill="#F05C2D"/>
<path d="M1647.28 356.889C1645.39 340.08 1637.57 327.06 1623.84 317.827C1610.11 308.475 1592.83 303.8 1572 303.8C1557.08 303.8 1544.18 306.167 1533.29 310.902C1522.4 315.518 1513.94 321.911 1507.9 330.078C1501.98 338.127 1499.02 347.301 1499.02 357.599C1499.02 366.241 1501.03 373.698 1505.06 379.972C1509.2 386.245 1514.59 391.513 1521.22 395.774C1527.96 399.917 1535.18 403.409 1542.88 406.25C1550.57 408.973 1557.97 411.222 1565.07 412.997L1600.58 422.23C1612.18 425.071 1624.08 428.918 1636.27 433.771C1648.46 438.625 1659.77 445.017 1670.19 452.947C1680.6 460.878 1689.01 470.703 1695.4 482.422C1701.91 494.141 1705.16 508.168 1705.16 524.503C1705.16 545.099 1699.84 563.388 1689.18 579.368C1678.65 595.348 1663.32 607.955 1643.2 617.188C1623.19 626.42 1598.99 631.037 1570.58 631.037C1543.35 631.037 1519.8 626.716 1499.91 618.075C1480.02 609.434 1464.46 597.183 1453.21 581.321C1441.97 565.341 1435.75 546.402 1434.57 524.503H1489.61C1490.68 537.642 1494.94 548.591 1502.39 557.351C1509.97 565.992 1519.62 572.443 1531.34 576.705C1543.17 580.848 1556.14 582.919 1570.22 582.919C1585.73 582.919 1599.52 580.492 1611.59 575.639C1623.78 570.668 1633.37 563.802 1640.36 555.043C1647.34 546.165 1650.83 535.807 1650.83 523.97C1650.83 513.198 1647.75 504.38 1641.6 497.514C1635.56 490.649 1627.34 484.967 1616.92 480.469C1606.62 475.971 1594.96 472.005 1581.94 468.572L1538.97 456.854C1509.85 448.923 1486.77 437.263 1469.72 421.875C1452.8 406.487 1444.33 386.127 1444.33 360.795C1444.33 339.844 1450.02 321.555 1461.38 305.93C1472.74 290.305 1488.13 278.172 1507.54 269.531C1526.96 260.772 1548.86 256.392 1573.24 256.392C1597.86 256.392 1619.58 260.713 1638.4 269.354C1657.34 277.995 1672.26 289.891 1683.15 305.043C1694.04 320.076 1699.72 337.358 1700.19 356.889H1647.28ZM1819.56 463.068V625H1766.47V261.364H1818.85V396.662H1822.22C1828.61 381.984 1838.38 370.324 1851.52 361.683C1864.66 353.042 1881.82 348.722 1903.01 348.722C1921.71 348.722 1938.05 352.569 1952.01 360.263C1966.1 367.957 1976.99 379.439 1984.68 394.709C1992.5 409.86 1996.4 428.8 1996.4 451.527V625H1943.31V457.919C1943.31 437.914 1938.16 422.408 1927.87 411.399C1917.57 400.272 1903.24 394.709 1884.9 394.709C1872.35 394.709 1861.1 397.372 1851.16 402.699C1841.34 408.026 1833.58 415.838 1827.9 426.136C1822.34 436.316 1819.56 448.627 1819.56 463.068ZM2182.13 630.504C2156.56 630.504 2134.25 624.645 2115.19 612.926C2096.13 601.207 2081.33 584.813 2070.8 563.743C2060.26 542.673 2055 518.052 2055 489.879C2055 461.589 2060.26 436.849 2070.8 415.661C2081.33 394.472 2096.13 378.018 2115.19 366.3C2134.25 354.581 2156.56 348.722 2182.13 348.722C2207.69 348.722 2230.01 354.581 2249.07 366.3C2268.12 378.018 2282.92 394.472 2293.45 415.661C2303.99 436.849 2309.26 461.589 2309.26 489.879C2309.26 518.052 2303.99 542.673 2293.45 563.743C2282.92 584.813 2268.12 601.207 2249.07 612.926C2230.01 624.645 2207.69 630.504 2182.13 630.504ZM2182.3 585.938C2198.88 585.938 2212.61 581.558 2223.5 572.798C2234.39 564.039 2242.44 552.379 2247.65 537.82C2252.97 523.26 2255.64 507.221 2255.64 489.702C2255.64 472.301 2252.97 456.321 2247.65 441.761C2242.44 427.083 2234.39 415.305 2223.5 406.428C2212.61 397.55 2198.88 393.111 2182.3 393.111C2165.61 393.111 2151.76 397.55 2140.76 406.428C2129.87 415.305 2121.76 427.083 2116.43 441.761C2111.22 456.321 2108.62 472.301 2108.62 489.702C2108.62 507.221 2111.22 523.26 2116.43 537.82C2121.76 552.379 2129.87 564.039 2140.76 572.798C2151.76 581.558 2165.61 585.938 2182.3 585.938ZM2368.52 727.273V352.273H2420.36V396.484H2424.8C2427.88 390.803 2432.32 384.233 2438.12 376.776C2443.92 369.318 2451.97 362.808 2462.27 357.244C2472.57 351.562 2486.18 348.722 2503.11 348.722C2525.12 348.722 2544.77 354.285 2562.05 365.412C2579.34 376.539 2592.89 392.578 2602.71 413.53C2612.66 434.482 2617.63 459.695 2617.63 489.169C2617.63 518.643 2612.72 543.916 2602.89 564.986C2593.07 585.937 2579.57 602.095 2562.41 613.459C2545.25 624.704 2525.65 630.327 2503.64 630.327C2487.07 630.327 2473.51 627.545 2462.98 621.982C2452.56 616.418 2444.39 609.908 2438.47 602.45C2432.56 594.993 2428 588.364 2424.8 582.564H2421.61V727.273H2368.52ZM2420.54 488.636C2420.54 507.812 2423.32 524.621 2428.89 539.062C2434.45 553.504 2442.5 564.808 2453.03 572.976C2463.57 581.025 2476.47 585.05 2491.74 585.05C2507.6 585.05 2520.86 580.848 2531.51 572.443C2542.17 563.92 2550.22 552.379 2555.66 537.82C2561.23 523.26 2564.01 506.866 2564.01 488.636C2564.01 470.644 2561.28 454.486 2555.84 440.163C2550.51 425.84 2542.46 414.536 2531.69 406.25C2521.04 397.964 2507.72 393.821 2491.74 393.821C2476.35 393.821 2463.33 397.786 2452.68 405.717C2442.14 413.648 2434.15 424.716 2428.71 438.92C2423.26 453.125 2420.54 469.697 2420.54 488.636Z" fill="#F05C2D"/>
<path d="M857.603 625H720.671V267.613H715.841L698.031 312.678C691.761 253.529 670.759 198.777 638.761 152.163L683.454 43.1816H857.603V625ZM1418.04 157.387H1241.62V625H1102.99V157.387H926.281V43.1816H1418.04V157.387ZM576.068 621.307H571.133C573.623 619.274 576.084 617.207 578.517 615.108L576.068 621.307Z" fill="#F05C2D"/>
</svg>
