<svg width="1510" height="479" viewBox="0 0 1510 479" fill="none" xmlns="http://www.w3.org/2000/svg">
<path d="M0 114H67L71 126L75 141L81 161L87 183L91 197L98 220L105 246L112 269L118 292L122 304L126 318V322H406L407 313L414 287L421 261L425 246L432 220L439 195L443 180L445 174H417V157H468L467 165L460 191L454 212L448 236L441 260L434 288L428 309L420 340L126 341L101 379L98 388V404L103 414L110 420L119 423L127 424V442.5L112 441L100 436L90 428L83 417L80 410L79 404V384L83 373L90 361L109 333L108 325L101 301L94 278L90 262L84 241L80 227L73 202L66 178L60 159L53 133L0 132V114Z" fill="#3A3A39"/>
<path d="M219 154L228 163L216 177L190 151L188 150L186 154L168 172L160 179L122 217L119 216L112 208L109 204L128 185L136 178L188 126L192 128L211 147L219 154Z" fill="#F15E30"/>
<path d="M393 9L416 3L424 0H429L428 6L422 27L411 71L408 75L389 56L385 58L267 176L254 163L374 43L375 41L371 39L354 22L355 20L373 15L393 9Z" fill="#F15E30"/>
<path d="M348 116H402V309H348V116Z" fill="#F05C2D"/>
<path d="M275 194H330V309H275V194Z" fill="#F05D30"/>
<path d="M283 27H331V73H317L316 52L264 104L256 111L249 118L244 123L242 126H240L235 121L233.5 119.5L232.5 118.5L232 118L231 117L230 116L229 115L227.5 113.5L227 113L226 112L225 111L223 109L221 107L198 84L191 90L156 125L148 132L143 136L134 127L136 123L171 88L179 81L189 71L196 63L200 65L237 102L238 103L240 105L244 102L278 68L286 61L305 42L283 41V27Z" fill="#F26132"/>
<path d="M130 231H184V309H130V231Z" fill="#F05A2D"/>
<path d="M203 246H257V309H203V246Z" fill="#F05A2D"/>
<path d="M202 358H257V411H219L209 398L202 390V358Z" fill="#3B3B3A"/>
<path d="M276 359H330V397L319 407L317 410H276V359Z" fill="#363636"/>
<path d="M349 359H402V411H390L384 403L375 396L364 392L361 391L349 390V359Z" fill="#373636"/>
<path d="M210 424H311V441H210V424Z" fill="#373636"/>
<path d="M130 359H184V381H130V359Z" fill="#363636"/>
<path d="M396 424H419V441H397L396 424Z" fill="#373738"/>
<path d="M354 388C378.301 388 398 407.699 398 432C398 456.301 378.301 476 354 476C329.699 476 310 456.301 310 432C310 407.699 329.699 388 354 388ZM354 407C340.193 407 329 418.193 329 432C329 445.807 340.193 457 354 457C367.807 457 379 445.807 379 432C379 418.193 367.807 407 354 407Z" fill="#E5623A"/>
<path d="M169 391C193.301 391 213 410.699 213 435C213 459.301 193.301 479 169 479C144.699 479 125 459.301 125 435C125 410.699 144.699 391 169 391ZM169 410C155.193 410 144 421.193 144 435C144 448.807 155.193 460 169 460C182.807 460 194 448.807 194 435C194 421.193 182.807 410 169 410Z" fill="#E5623A"/>
<path d="M239.5 149C254.688 149 267 161.312 267 176.5C267 191.688 254.688 204 239.5 204C224.312 204 212 191.688 212 176.5C212 161.312 224.312 149 239.5 149ZM240 162C231.716 162 225 168.716 225 177C225 185.284 231.716 192 240 192C248.284 192 255 185.284 255 177C255 168.716 248.284 162 240 162Z" fill="#F15E30"/>
<path d="M540.017 236.182H566.295L628.085 387.105H630.216L692.006 236.182H718.284V418H697.688V279.861H695.912L639.094 418H619.207L562.389 279.861H560.614V418H540.017V236.182ZM752.486 255.713V236.182H888.85V255.713H831.676V418H809.659V255.713H752.486Z" fill="#3A3A39"/>
<path d="M1022.45 281.636C1021.38 272.64 1017.06 265.656 1009.49 260.685C1001.91 255.713 992.619 253.227 981.611 253.227C973.562 253.227 966.518 254.529 960.482 257.134C954.504 259.738 949.828 263.318 946.455 267.876C943.14 272.433 941.483 277.612 941.483 283.412C941.483 288.265 942.637 292.438 944.945 295.93C947.313 299.362 950.331 302.233 954.001 304.541C957.67 306.79 961.517 308.655 965.542 310.134C969.567 311.555 973.266 312.709 976.639 313.597L995.105 318.568C999.84 319.811 1005.11 321.527 1010.91 323.717C1016.77 325.907 1022.36 328.896 1027.69 332.684C1033.07 336.413 1037.51 341.207 1041 347.066C1044.5 352.925 1046.24 360.116 1046.24 368.639C1046.24 378.464 1043.67 387.342 1038.52 395.273C1033.43 403.204 1025.97 409.507 1016.15 414.183C1006.38 418.858 994.513 421.196 980.545 421.196C967.525 421.196 956.25 419.095 946.721 414.893C937.251 410.691 929.794 404.831 924.349 397.315C918.963 389.798 915.915 381.068 915.205 371.125H937.932C938.524 377.991 940.832 383.672 944.857 388.17C948.94 392.609 954.089 395.924 960.304 398.114C966.578 400.244 973.325 401.31 980.545 401.31C988.95 401.31 996.496 399.948 1003.18 397.226C1009.87 394.444 1015.17 390.597 1019.08 385.685C1022.98 380.713 1024.93 374.913 1024.93 368.284C1024.93 362.247 1023.25 357.335 1019.87 353.547C1016.5 349.759 1012.06 346.681 1006.56 344.314C1001.05 341.946 995.105 339.875 988.713 338.099L966.341 331.707C952.136 327.624 940.891 321.794 932.605 314.218C924.319 306.642 920.176 296.729 920.176 284.477C920.176 274.297 922.928 265.42 928.433 257.844C933.996 250.209 941.453 244.29 950.805 240.088C960.215 235.827 970.721 233.696 982.321 233.696C994.04 233.696 1004.46 235.797 1013.57 239.999C1022.69 244.142 1029.91 249.824 1035.23 257.045C1040.62 264.265 1043.46 272.463 1043.76 281.636H1022.45ZM1100.55 335.969V418H1079.6V236.182H1100.55V302.943H1102.33C1105.52 295.9 1110.32 290.307 1116.71 286.164C1123.16 281.962 1131.74 279.861 1142.46 279.861C1151.75 279.861 1159.89 281.725 1166.87 285.454C1173.85 289.123 1179.27 294.776 1183.12 302.411C1187.02 309.986 1188.97 319.634 1188.97 331.352V418H1168.02V332.773C1168.02 321.942 1165.21 313.567 1159.59 307.648C1154.03 301.671 1146.3 298.682 1136.42 298.682C1129.55 298.682 1123.4 300.132 1117.95 303.032C1112.57 305.932 1108.3 310.164 1105.17 315.727C1102.09 321.291 1100.55 328.038 1100.55 335.969ZM1282.7 420.841C1270.39 420.841 1259.59 417.911 1250.3 412.052C1241.07 406.192 1233.85 397.995 1228.64 387.46C1223.49 376.925 1220.91 364.615 1220.91 350.528C1220.91 336.324 1223.49 323.924 1228.64 313.33C1233.85 302.736 1241.07 294.509 1250.3 288.65C1259.59 282.79 1270.39 279.861 1282.7 279.861C1295.01 279.861 1305.79 282.79 1315.02 288.65C1324.31 294.509 1331.53 302.736 1336.68 313.33C1341.89 323.924 1344.49 336.324 1344.49 350.528C1344.49 364.615 1341.89 376.925 1336.68 387.46C1331.53 397.995 1324.31 406.192 1315.02 412.052C1305.79 417.911 1295.01 420.841 1282.7 420.841ZM1282.7 402.02C1292.05 402.02 1299.75 399.623 1305.79 394.829C1311.82 390.035 1316.29 383.732 1319.19 375.919C1322.09 368.107 1323.54 359.643 1323.54 350.528C1323.54 341.414 1322.09 332.921 1319.19 325.049C1316.29 317.177 1311.82 310.815 1305.79 305.962C1299.75 301.108 1292.05 298.682 1282.7 298.682C1273.35 298.682 1265.66 301.108 1259.62 305.962C1253.58 310.815 1249.11 317.177 1246.21 325.049C1243.31 332.921 1241.86 341.414 1241.86 350.528C1241.86 359.643 1243.31 368.107 1246.21 375.919C1249.11 383.732 1253.58 390.035 1259.62 394.829C1265.66 399.623 1273.35 402.02 1282.7 402.02ZM1376.47 469.136V281.636H1396.72V303.298H1399.2C1400.74 300.931 1402.87 297.912 1405.59 294.243C1408.38 290.514 1412.34 287.2 1417.49 284.3C1422.7 281.34 1429.74 279.861 1438.62 279.861C1450.1 279.861 1460.22 282.731 1468.98 288.472C1477.74 294.213 1484.58 302.351 1489.49 312.886C1494.4 323.421 1496.86 335.85 1496.86 350.173C1496.86 364.615 1494.4 377.132 1489.49 387.727C1484.58 398.262 1477.77 406.429 1469.07 412.229C1460.37 417.97 1450.34 420.841 1438.97 420.841C1430.22 420.841 1423.2 419.391 1417.93 416.491C1412.67 413.531 1408.61 410.187 1405.77 406.459C1402.93 402.671 1400.74 399.534 1399.2 397.048H1397.43V469.136H1376.47ZM1397.07 349.818C1397.07 360.116 1398.58 369.201 1401.6 377.073C1404.62 384.886 1409.03 391.011 1414.83 395.45C1420.63 399.83 1427.73 402.02 1436.13 402.02C1444.89 402.02 1452.2 399.712 1458.06 395.095C1463.98 390.42 1468.42 384.146 1471.38 376.274C1474.4 368.343 1475.91 359.525 1475.91 349.818C1475.91 340.23 1474.43 331.589 1471.47 323.895C1468.57 316.142 1464.16 310.016 1458.24 305.518C1452.38 300.96 1445.01 298.682 1436.13 298.682C1427.61 298.682 1420.45 300.842 1414.65 305.163C1408.85 309.424 1404.47 315.402 1401.51 323.096C1398.55 330.731 1397.07 339.638 1397.07 349.818Z" fill="#F05C2D"/>
</svg>
