<svg width="468" height="479" viewBox="0 0 468 479" fill="none" xmlns="http://www.w3.org/2000/svg">
<path d="M0 114H67L71 126L75 141L81 161L87 183L91 197L98 220L105 246L112 269L118 292L122 304L126 318V322H406L407 313L414 287L421 261L425 246L432 220L439 195L443 180L445 174H417V157H468L467 165L460 191L454 212L448 236L441 260L434 288L428 309L420 340L126 341L101 379L98 388V404L103 414L110 420L119 423L127 424V442.5L112 441L100 436L90 428L83 417L80 410L79 404V384L83 373L90 361L109 333L108 325L101 301L94 278L90 262L84 241L80 227L73 202L66 178L60 159L53 133L0 132V114Z" fill="#3A3A39"/>
<path d="M219 154L228 163L216 177L190 151L188 150L186 154L168 172L160 179L122 217L119 216L112 208L109 204L128 185L136 178L188 126L192 128L211 147L219 154Z" fill="#F15E30"/>
<path d="M393 9L416 3L424 0H429L428 6L422 27L411 71L408 75L389 56L385 58L267 176L254 163L374 43L375 41L371 39L354 22L355 20L373 15L393 9Z" fill="#F15E30"/>
<path d="M348 116H402V309H348V116Z" fill="#F05C2D"/>
<path d="M275 194H330V309H275V194Z" fill="#F05D30"/>
<path d="M283 27H331V73H317L316 52L264 104L256 111L249 118L244 123L242 126H240L235 121L233.5 119.5L232.5 118.5L232 118L231 117L230 116L229 115L227.5 113.5L227 113L226 112L225 111L223 109L221 107L198 84L191 90L156 125L148 132L143 136L134 127L136 123L171 88L179 81L189 71L196 63L200 65L237 102L238 103L240 105L244 102L278 68L286 61L305 42L283 41V27Z" fill="#F26132"/>
<path d="M130 231H184V309H130V231Z" fill="#F05A2D"/>
<path d="M203 246H257V309H203V246Z" fill="#F05A2D"/>
<path d="M202 358H257V411H219L209 398L202 390V358Z" fill="#3B3B3A"/>
<path d="M276 359H330V397L319 407L317 410H276V359Z" fill="#363636"/>
<path d="M349 359H402V411H390L384 403L375 396L364 392L361 391L349 390V359Z" fill="#373636"/>
<path d="M210 424H311V441H210V424Z" fill="#373636"/>
<path d="M130 359H184V381H130V359Z" fill="#363636"/>
<path d="M396 424H419V441H397L396 424Z" fill="#373738"/>
<path d="M354 388C378.301 388 398 407.699 398 432C398 456.301 378.301 476 354 476C329.699 476 310 456.301 310 432C310 407.699 329.699 388 354 388ZM354 407C340.193 407 329 418.193 329 432C329 445.807 340.193 457 354 457C367.807 457 379 445.807 379 432C379 418.193 367.807 407 354 407Z" fill="#E5623A"/>
<path d="M169 391C193.301 391 213 410.699 213 435C213 459.301 193.301 479 169 479C144.699 479 125 459.301 125 435C125 410.699 144.699 391 169 391ZM169 410C155.193 410 144 421.193 144 435C144 448.807 155.193 460 169 460C182.807 460 194 448.807 194 435C194 421.193 182.807 410 169 410Z" fill="#E5623A"/>
<path d="M239.5 149C254.688 149 267 161.312 267 176.5C267 191.688 254.688 204 239.5 204C224.312 204 212 191.688 212 176.5C212 161.312 224.312 149 239.5 149ZM240 162C231.716 162 225 168.716 225 177C225 185.284 231.716 192 240 192C248.284 192 255 185.284 255 177C255 168.716 248.284 162 240 162Z" fill="#F15E30"/>
</svg>
